<svg width="283" height="109" viewBox="0 0 283 109" fill="none" xmlns="http://www.w3.org/2000/svg">
<path d="M252.721 50.6222C253.713 50.6222 254.692 50.8279 255.62 51.236L255.966 51.3985L256.304 51.5807L279.36 64.8523C282.823 66.8455 284.026 71.2886 282.047 74.7763C281.536 75.6771 280.84 76.4557 279.989 77.0735L279.663 77.2976L279.36 77.4823L257.721 89.9382L257.721 83.6931C257.72 80.7566 259.226 78.0371 261.688 76.4917L261.965 76.3249L270.925 71.1663L255.129 62.0731L255.128 108.877H253.924C249.368 108.877 245.657 105.234 245.504 100.683L245.499 100.391V57.8957C245.499 53.8787 248.733 50.6222 252.721 50.6222ZM123.593 44.847V52.084C123.593 54.66 122.432 57.0884 120.433 58.7073L120.168 58.9138L119.892 59.1103L107.233 67.7444C106.875 67.9901 106.588 68.3289 106.405 68.7251C105.916 69.7811 106.246 71.033 107.118 71.681L107.278 71.789L107.409 71.8663L107.571 71.9477L118.739 77.211C121.491 78.508 123.326 81.1911 123.567 84.2423L123.587 84.5706L123.593 84.897V90.1746L103.5 80.7365C97.4755 77.907 94.869 70.6943 97.6783 64.6265C98.3946 63.0793 99.4249 61.707 100.723 60.5749L101.084 60.2722L101.455 59.9849L101.822 59.7228L123.593 44.847ZM132.89 81.0049V31.6359L134.409 31.6643C138.71 31.824 142.187 35.2326 142.491 39.5471L142.507 39.8427L142.512 40.1374L142.511 51.7274L162.054 60.7017C163.508 61.3693 164.526 62.7127 164.8 64.3007L164.839 64.5675L164.863 64.8384L164.871 65.1138V89.5034L163.353 89.475C159.051 89.3153 155.575 85.9068 155.27 81.5922L155.254 81.2967L155.249 81.0019L155.249 69.4969C155.249 68.6331 154.793 67.8409 154.092 67.4216L153.927 67.3316L153.751 67.2522L142.511 62.6316L142.512 89.5064L140.994 89.4781C136.692 89.3184 133.216 85.9098 132.911 81.5952L132.896 81.2997L132.89 81.0049ZM77.0299 80.9981V46.3225L78.5486 46.3509C82.8537 46.5107 86.3328 49.9221 86.6376 54.2401L86.6534 54.5359L86.6586 54.8309V89.4839H85.455C81.016 89.4839 77.3608 86.0198 77.0506 81.5837L77.0351 81.2931L77.0299 80.9981ZM205.796 31.2955V32.5078C205.796 37.0967 202.179 40.8349 197.66 40.9887L197.371 40.9936L185.335 40.9928L185.335 89.4839H184.131C179.692 89.4839 176.037 86.0198 175.727 81.5837L175.711 81.2931L175.706 80.9981L175.706 40.9928L162.467 40.9936V39.7813C162.467 35.1924 166.083 31.4542 170.602 31.3005L170.892 31.2955H205.796ZM209.889 52.788C213.006 49.9743 217.686 49.9021 220.884 52.5716L221.133 52.788L233.074 63.5638C234.872 65.1866 235.864 67.4662 235.877 69.8051L235.872 70.1395L235.87 89.4839H234.667C230.67 89.4839 227.207 87.0198 225.759 83.4765L225.64 83.1701L225.57 82.9733L221.133 86.9796C218.1 89.7173 213.588 89.8595 210.4 87.4064L210.138 87.196L209.889 86.9796L197.948 76.2037C194.483 73.0763 194.191 67.7114 197.296 64.221C197.433 64.0671 197.575 63.9183 197.723 63.7748L197.948 63.5638L209.889 52.788ZM214.827 61.4214L214.708 61.5159L206.437 68.9799C205.942 69.4267 205.9 70.1931 206.344 70.6918L206.389 70.74L206.437 70.7856L214.708 78.2496C215.127 78.6278 215.743 78.6593 216.195 78.3442L216.314 78.2496L224.585 70.7856C225.08 70.3388 225.122 69.5724 224.678 69.0738L224.585 68.9799L216.314 61.5159C215.933 61.1721 215.389 61.1148 214.954 61.344L214.827 61.4214Z" fill="url(#paint0_linear)"/>
<path d="M14.7041 0.454346C16.5106 0.454346 18.3002 0.789612 19.9836 1.44188L20.44 1.62762L25.8905 3.95398L66.2561 22.6711L58.2463 27.5185C56.9806 28.2844 55.4412 28.4204 54.0695 27.8997L53.7975 27.7868L16.4141 10.9092C13.9878 9.81379 11.1392 10.9068 10.0516 13.3506C9.8136 13.8853 9.67415 14.4583 9.63916 15.0416L9.6304 15.334V89.4658H8.42681C3.86977 89.4658 0.157583 85.8225 0.00488633 81.2701L0 80.9783V15.2644C0 7.08501 6.58326 0.454346 14.7041 0.454346ZM68.6373 26.8803L69.2182 28.0539C71.3017 32.263 69.8964 37.3585 66.0016 39.8928L65.7383 40.0579L45.3052 52.3959L70.9182 89.3666L63.7503 89.465C61.0758 89.5017 58.5501 88.2576 56.9362 86.1258L56.7393 85.8547L36.9439 57.4462L16.0193 70.0854L15.4379 68.9155C13.4314 64.8774 15.7225 59.0862 19.7526 56.4664L20.0122 56.3035L68.6373 26.8803ZM24.4276 20.5305L25.4323 20.8534L24.9776 20.7302L25.2302 20.8389L50.5546 32.1711L47.4006 34.0747C46.2968 34.7404 44.9524 34.8609 43.7512 34.4048L42.7536 34.0645L23.2488 25.2584C22.1803 24.7755 20.9132 25.1381 20.2767 26.0938L20.1739 26.2648L20.0771 26.4574C20.0074 26.6128 19.9567 26.7597 19.9232 26.8923L19.9002 26.9958L19.8703 27.1945L19.857 27.4458L19.8546 48.3484C19.8545 49.7581 19.1592 51.0744 18.0024 51.8623L17.7917 51.9972L15.0398 53.6554L15.0421 27.4706C15.0421 26.6992 15.1639 25.9364 15.4071 25.1915L15.5451 24.8037L15.681 24.479C17.1815 21.111 20.9613 19.4285 24.4276 20.5305Z" fill="url(#paint1_linear)"/>
<defs>
<linearGradient id="paint0_linear" x1="283" y1="75.5112" x2="98.4444" y2="6.98637" gradientUnits="userSpaceOnUse">
<stop stop-color="#29B3D7"/>
<stop offset="1" stop-color="#DADE94"/>
</linearGradient>
<linearGradient id="paint1_linear" x1="58.2932" y1="89.4658" x2="-3.26783" y2="13.2997" gradientUnits="userSpaceOnUse">
<stop stop-color="#29B3D7"/>
<stop offset="1" stop-color="#DADE94"/>
</linearGradient>
</defs>
</svg>
