<svg width="767" height="40" viewBox="0 0 767 40" fill="none" xmlns="http://www.w3.org/2000/svg">
<path fill-rule="evenodd" clip-rule="evenodd" d="M38 0H36V40H38V0ZM74 14H72V26H74V14ZM116 16H114V24H116V16ZM303 16H305V24H303V16ZM416 19H414V21H416V19ZM689 16H687V24H689V16ZM498 16H500V24H498V16ZM219 16H221V24H219V16ZM605 16H603V24H605V16ZM456 16H458V24H456V16ZM261 17H263V23H261V17ZM647 17H645V23H647V17ZM158 17H156V23H158V17ZM540 17H542V23H540V17ZM177 17H179V23H177V17ZM563 17H561V23H563V17ZM420 16H422V24H420V16ZM297 11H299V29H297V11ZM683 11H681V29H683V11ZM122 11H120V29H122V11ZM504 11H506V29H504V11ZM213 11H215V29H213V11ZM599 11H597V29H599V11ZM80 7H78V33H80V7ZM462 11H464V29H462V11ZM255 14H257V26H255V14ZM641 14H639V26H641V14ZM164 14H162V26H164V14ZM546 14H548V26H546V14ZM171 14H173V26H171V14ZM557 14H555V26H557V14ZM35 10H33V30H35V10ZM417 19H419V21H417V19ZM300 16H302V24H300V16ZM686 16H684V24H686V16ZM119 16H117V24H119V16ZM501 16H503V24H501V16ZM216 16H218V24H216V16ZM602 16H600V24H602V16ZM77 14H75V26H77V14ZM459 16H461V24H459V16ZM258 17H260V23H258V17ZM644 17H642V23H644V17ZM42 4H44V36H42V4ZM84 9H86V31H84V9ZM402 14H404V26H402V14ZM2 19H0V22H2V19ZM335 18H333V22H335V18ZM717 18H719V22H717V18ZM470 13H468V27H470V13ZM251 16H249V24H251V16ZM633 16H635V24H633V16ZM428 17H426V23H428V17ZM293 13H291V27H293V13ZM675 13H677V27H675V13ZM126 13H128V27H126V13ZM512 13H510V27H512V13ZM209 13H207V27H209V13ZM591 13H593V27H591V13ZM3 17H5V23H3V17ZM399 16H401V24H399V16ZM332 17H330V23H332V17ZM714 17H716V23H714V17ZM87 14H89V26H87V14ZM14 6H12V34H14V6ZM50 8H48V33H50V8ZM47 10H45V30H47V10ZM473 16H471V24H473V16ZM246 17H248V23H246V17ZM632 17H630V23H632V17ZM429 19H431V21H429V19ZM288 16H290V25H288V16ZM674 16H672V25H674V16ZM131 16H129V25H131V16ZM513 16H515V25H513V16ZM204 16H206V25H204V16ZM590 16H588V25H590V16ZM8 17H6V24H8V17ZM398 15H396V25H398V15ZM327 16H329V24H327V16ZM713 16H711V24H713V16ZM92 11H90V29H92V11ZM474 14H476V26H474V14ZM243 16H245V24H243V16ZM629 16H627V24H629V16ZM432 11H434V29H432V11ZM285 15H287V25H285V15ZM671 15H669V25H671V15ZM134 15H132V25H134V15ZM516 15H518V25H516V15ZM201 15H203V25H201V15ZM587 15H585V25H587V15ZM11 12H9V29H11V12ZM395 15H393V25H395V15ZM324 16H326V24H324V16ZM710 16H708V24H710V16ZM95 11H93V29H95V11ZM477 14H479V26H477V14ZM240 11H242V29H240V11ZM626 11H624V29H626V11ZM53 8H51V33H53V8ZM435 11H437V29H435V11ZM282 15H284V25H282V15ZM668 15H666V25H668V15ZM137 15H135V25H137V15ZM519 15H521V25H519V15ZM198 15H200V25H198V15ZM584 15H582V25H584V15ZM392 16H390V24H392V16ZM321 17H323V23H321V17ZM707 17H705V23H707V17ZM98 14H96V26H98V14ZM480 16H482V24H480V16ZM237 14H239V26H237V14ZM623 14H621V26H623V14ZM56 11H54V29H56V11ZM438 14H440V26H438V14ZM279 16H281V24H279V16ZM665 16H663V24H665V16ZM140 16H138V24H140V16ZM522 16H524V24H522V16ZM195 16H197V24H195V16ZM581 16H579V24H581V16ZM17 6H15V34H17V6ZM389 16H387V24H389V16ZM318 17H320V23H318V17ZM704 17H702V23H704V17ZM57 11H59V29H57V11ZM101 14H99V26H101V14ZM485 16H483V24H485V16ZM236 14H234V26H236V14ZM618 14H620V26H618V14ZM443 14H441V26H443V14ZM278 16H276V24H278V16ZM660 16H662V24H660V16ZM141 16H143V24H141V16ZM527 16H525V24H527V16ZM194 16H192V24H194V16ZM576 16H578V24H576V16ZM18 13H20V27H18V13ZM384 18H386V22H384V18ZM317 16H315V24H317V16ZM699 16H701V24H699V16ZM347 19H345V21H347V19ZM729 19H731V21H729V19ZM359 19H357V21H359V19ZM741 19H743V21H741V19ZM371 19H369V21H371V19ZM753 19H755V21H753V19ZM21 13H23V27H21V13ZM60 16H62V25H60V16ZM102 16H104V24H102V16ZM381 19H383V21H381V19ZM765 19H767V21H765V19ZM488 18H486V22H488V18ZM233 16H231V24H233V16ZM615 16H617V24H615V16ZM446 16H444V24H446V16ZM275 19H273V22H275V19ZM657 19H659V22H657V19ZM144 19H146V22H144V19ZM530 19H528V22H530V19ZM191 19H189V22H191V19ZM573 19H575V22H573V19ZM407 13H405V27H407V13ZM314 16H312V24H314V16ZM696 16H698V24H696V16ZM344 19H342V21H344V19ZM726 19H728V21H726V19ZM356 19H354V21H356V19ZM738 19H740V21H738V19ZM368 19H366V21H368V19ZM750 19H752V21H750V19ZM380 19H378V21H380V19ZM762 19H764V21H762V19ZM105 16H107V24H105V16ZM491 16H489V24H491V16ZM230 16H228V24H230V16ZM612 16H614V24H612V16ZM63 16H65V25H63V16ZM449 16H447V24H449V16ZM272 19H270V22H272V19ZM654 19H656V22H654V19ZM147 19H149V22H147V19ZM32 10H30V30H32V10ZM26 13H24V27H26V13ZM186 19H188V22H186V19ZM533 19H531V22H533V19ZM572 19H570V22H572V19ZM408 13H410V27H408V13ZM309 16H311V24H309V16ZM695 16H693V24H695V16ZM339 19H341V21H339V19ZM725 19H723V21H725V19ZM351 19H353V21H351V19ZM737 19H735V21H737V19ZM363 19H365V21H363V19ZM749 19H747V21H749V19ZM375 19H377V21H375V19ZM761 19H759V21H761V19ZM110 16H108V24H110V16ZM492 16H494V24H492V16ZM225 16H227V24H225V16ZM611 16H609V24H611V16ZM68 16H66V25H68V16ZM450 16H452V24H450V16ZM267 19H269V22H267V19ZM653 19H651V22H653V19ZM152 19H150V22H152V19ZM534 19H536V22H534V19ZM183 19H185V22H183V19ZM569 19H567V22H569V19ZM29 13H27V27H29V13ZM411 15H413V25H411V15ZM306 16H308V24H306V16ZM692 16H690V24H692V16ZM336 19H338V21H336V19ZM722 19H720V21H722V19ZM348 19H350V21H348V19ZM734 19H732V21H734V19ZM360 19H362V21H360V19ZM746 19H744V21H746V19ZM372 19H374V21H372V19ZM758 19H756V21H758V19ZM113 16H111V24H113V16ZM495 16H497V24H495V16ZM222 16H224V24H222V16ZM608 16H606V24H608V16ZM71 16H69V25H71V16ZM453 16H455V24H453V16ZM264 19H266V22H264V19ZM650 19H648V22H650V19ZM155 19H153V22H155V19ZM537 19H539V22H537V19ZM180 19H182V22H180V19ZM566 19H564V22H566V19ZM41 0H39V40H41V0ZM159 17H161V23H159V17ZM543 17H545V23H543V17ZM174 17H176V23H174V17ZM560 17H558V23H560V17ZM423 16H425V24H423V16ZM294 11H296V29H294V11ZM680 11H678V29H680V11ZM125 11H123V29H125V11ZM507 11H509V29H507V11ZM210 11H212V29H210V11ZM596 11H594V29H596V11ZM83 7H81V33H83V7ZM467 11H465V29H467V11ZM252 14H254V26H252V14ZM638 14H636V26H638V14ZM167 14H165V26H167V14ZM549 14H551V26H549V14ZM168 14H170V26H168V14ZM554 14H552V26H554V14Z" fill="url(#paint0_linear)"/>
<defs>
<linearGradient id="paint0_linear" x1="630.457" y1="40" x2="628.559" y2="-16.5234" gradientUnits="userSpaceOnUse">
<stop stop-color="#29B3D7"/>
<stop offset="1" stop-color="#DADE94"/>
</linearGradient>
</defs>
</svg>
