<svg width="17" height="16" viewBox="0 0 17 16" fill="none" xmlns="http://www.w3.org/2000/svg">
<path d="M13.9845 7.31381C13.8672 7.20065 13.7105 7.13764 13.5476 7.13817C13.3846 7.1387 13.2283 7.20272 13.1118 7.31664L9.10077 11.2172V0.602613C9.09991 0.522454 9.08324 0.443254 9.05171 0.369552C9.02017 0.29585 8.9744 0.229097 8.91702 0.173119C8.85964 0.117141 8.79177 0.0730396 8.71731 0.0433424C8.64285 0.0136452 8.56327 -0.0010634 8.48311 5.98023e-05C8.32171 -0.00195778 8.1661 0.0601667 8.05047 0.172789C7.93484 0.285412 7.86863 0.439325 7.86639 0.600724V11.1879L3.88746 7.3157C3.77019 7.20235 3.61337 7.13915 3.45027 7.1395C3.28717 7.13985 3.13063 7.20373 3.01385 7.31759C2.95666 7.37265 2.91119 7.43869 2.88016 7.51176C2.84913 7.58482 2.83318 7.6634 2.83327 7.74279C2.83335 7.82217 2.84948 7.90072 2.88067 7.97371C2.91187 8.04671 2.95749 8.11265 3.0148 8.16758L8.0175 13.0333C8.07883 13.0925 8.15186 13.1382 8.23189 13.1675C8.31098 13.2026 8.39654 13.221 8.48311 13.2213C8.50483 13.2213 8.52372 13.2118 8.54544 13.209C8.71066 13.2112 8.86998 13.1477 8.98839 13.0324L13.9864 8.16286C14.0436 8.10781 14.0891 8.04174 14.1201 7.96863C14.1512 7.89552 14.1671 7.81688 14.1669 7.73746C14.1667 7.65804 14.1505 7.57948 14.1191 7.5065C14.0878 7.43353 14.042 7.36766 13.9845 7.31287V7.31381ZM16.0556 14.7806C16.0556 15.1196 15.7742 15.3944 15.4257 15.3944H1.57452C1.40961 15.3965 1.25065 15.3329 1.13253 15.2178C1.01442 15.1027 0.94682 14.9455 0.94458 14.7806C0.94458 14.4415 1.22697 14.1667 1.57452 14.1667H15.4257C15.7742 14.1667 16.0556 14.4415 16.0556 14.7806Z" fill="#D5D5D5"/>
</svg>
