<svg width="20" height="19" viewBox="0 0 20 19" fill="none" xmlns="http://www.w3.org/2000/svg">
<path d="M2.69909 0.931641H7.30512C7.7175 0.931641 8.11875 1.06475 8.44865 1.31099L9.84613 2.35418H17.4696C17.9751 2.35418 18.4599 2.55402 18.8173 2.90972C19.1747 3.26543 19.3755 3.74786 19.3755 4.25091V16.1054C19.3755 16.6085 19.1747 17.0909 18.8173 17.4466C18.4599 17.8023 17.9751 18.0022 17.4696 18.0022H2.69909C2.19362 18.0022 1.70885 17.8023 1.35143 17.4466C0.99401 17.0909 0.793213 16.6085 0.793213 16.1054L0.793213 2.82836C0.793213 2.32532 0.99401 1.84288 1.35143 1.48718C1.70885 1.13147 2.19362 0.931641 2.69909 0.931641V0.931641ZM2.69909 2.35418C2.63652 2.35418 2.57456 2.36645 2.51675 2.39028C2.45895 2.41411 2.40642 2.44904 2.36218 2.49307C2.31793 2.5371 2.28284 2.58937 2.25889 2.6469C2.23495 2.70443 2.22262 2.76609 2.22262 2.82836V16.1054C2.22262 16.1677 2.23495 16.2294 2.25889 16.2869C2.28284 16.3444 2.31793 16.3967 2.36218 16.4407C2.40642 16.4848 2.45895 16.5197 2.51675 16.5435C2.57456 16.5673 2.63652 16.5796 2.69909 16.5796H17.4696C17.5322 16.5796 17.5942 16.5673 17.652 16.5435C17.7098 16.5197 17.7623 16.4848 17.8066 16.4407C17.8508 16.3967 17.8859 16.3444 17.9098 16.2869C17.9338 16.2294 17.9461 16.1677 17.9461 16.1054V4.25091C17.9461 4.12515 17.8959 4.00454 17.8066 3.91561C17.7172 3.82668 17.596 3.77673 17.4696 3.77673H9.84613C9.53685 3.77673 9.23591 3.67689 8.98849 3.49222L7.591 2.44902C7.50853 2.38746 7.40821 2.35418 7.30512 2.35418H2.69909ZM10.7991 8.90641V13.4974C10.799 13.6861 10.7237 13.8669 10.5897 14.0003C10.4557 14.1337 10.2739 14.2086 10.0844 14.2086C9.89484 14.2086 9.71306 14.1337 9.57903 14.0003C9.445 13.8669 9.36969 13.6861 9.36966 13.4974V8.90641L7.73061 10.2071C7.59575 10.3366 7.41518 10.4082 7.22779 10.4065C7.0404 10.4048 6.86117 10.3299 6.72872 10.198C6.59627 10.066 6.52119 9.88759 6.51965 9.7011C6.51811 9.5146 6.59024 9.33497 6.72049 9.20088L9.57931 6.82998C9.71332 6.69678 9.89497 6.62196 10.0844 6.62196C10.2738 6.62196 10.4554 6.69678 10.5894 6.82998L13.4482 9.20088C13.5785 9.33497 13.6506 9.5146 13.6491 9.7011C13.6475 9.88759 13.5725 10.066 13.44 10.198C13.3076 10.3299 13.1283 10.4048 12.9409 10.4065C12.7536 10.4082 12.573 10.3366 12.4381 10.2071L10.7991 8.90641Z" fill="#D5D5D5"/>
</svg>
