<svg width="31" height="23" viewBox="0 0 31 23" fill="none" xmlns="http://www.w3.org/2000/svg">
<path fill-rule="evenodd" clip-rule="evenodd" d="M2.76511 1H28.7651C29.3174 1 29.7651 1.44772 29.7651 2V20C29.7651 20.5523 29.3174 21 28.7651 21H2.76511C2.21282 21 1.76511 20.5523 1.76511 20V2C1.76511 1.44772 2.21282 1 2.76511 1ZM0.765106 2C0.765106 0.89543 1.66054 0 2.76511 0H28.7651C29.8697 0 30.7651 0.895431 30.7651 2V20C30.7651 21.1046 29.8697 22 28.7651 22H2.76511C1.66054 22 0.765106 21.1046 0.765106 20V2ZM18.8137 5.74043C18.8137 5.2986 19.1719 4.94043 19.6137 4.94043H22.0137C22.4555 4.94043 22.8137 5.2986 22.8137 5.74043V6.44043H28.8017V7.44043H22.8137V8.14043C22.8137 8.58226 22.4555 8.94043 22.0137 8.94043H19.6137L19.5939 8.94019L12.8154 13.6653C12.8181 13.6922 12.8195 13.7196 12.8195 13.7473V16.1473C12.8195 16.5891 12.4614 16.9473 12.0195 16.9473H9.61955C9.17772 16.9473 8.81955 16.5891 8.81955 16.1473V14.9473H2.82468V13.9473H8.81955V13.7473C8.81955 13.3054 9.17772 12.9473 9.61955 12.9473H12.0195C12.044 12.9473 12.0682 12.9484 12.092 12.9505L18.8224 8.25898C18.8167 8.2203 18.8137 8.18071 18.8137 8.14043V5.74043ZM19.8137 5.94043V7.94043H21.8137V5.94043H19.8137ZM11.8195 15.9473H9.81955V13.9473H11.8195V15.9473Z" fill="white"/>
</svg>
