<svg width="23" height="25" viewBox="0 0 23 25" fill="none" xmlns="http://www.w3.org/2000/svg">
<path fill-rule="evenodd" clip-rule="evenodd" d="M17.3286 8.64147C17.0357 8.93436 17.0357 9.40923 17.3286 9.70213C17.6215 9.99502 18.0963 9.99502 18.3892 9.70213L22.6001 5.49123C22.893 5.19833 22.893 4.72346 22.6001 4.43057L18.3892 0.21967C18.0963 -0.0732233 17.6214 -0.0732233 17.3286 0.21967C17.0357 0.512563 17.0357 0.987437 17.3286 1.28033L20.2592 4.21097H4.10339C2.03233 4.21097 0.353394 5.8899 0.353394 7.96097V13.3245C0.353394 13.7387 0.68918 14.0745 1.10339 14.0745C1.51761 14.0745 1.85339 13.7387 1.85339 13.3245V7.96097C1.85339 6.71833 2.86075 5.71097 4.10339 5.71097H20.259L17.3286 8.64147Z" fill="white"/>
<path fill-rule="evenodd" clip-rule="evenodd" d="M5.84466 16.1622C6.13755 15.8694 6.13755 15.3945 5.84466 15.1016C5.55177 14.8087 5.07689 14.8087 4.784 15.1016L0.573103 19.3125C0.28021 19.6054 0.28021 20.0803 0.573103 20.3731L4.784 24.584C5.07689 24.8769 5.55177 24.8769 5.84466 24.584C6.13756 24.2911 6.13756 23.8163 5.84466 23.5234L2.91402 20.5927H19.0698C21.1409 20.5927 22.8198 18.9138 22.8198 16.8427V11.4792C22.8198 11.065 22.484 10.7292 22.0698 10.7292C21.6556 10.7292 21.3198 11.065 21.3198 11.4792V16.8427C21.3198 18.0854 20.3125 19.0927 19.0698 19.0927H2.91417L5.84466 16.1622Z" fill="white"/>
</svg>
