<svg width="26" height="19" viewBox="0 0 26 19" fill="none" xmlns="http://www.w3.org/2000/svg">
<path d="M0 7C0 6.44772 0.447715 6 1 6H5C5.55228 6 6 6.44772 6 7V18C6 18.5523 5.55228 19 5 19H1C0.447715 19 0 18.5523 0 18V7Z" fill="#2FB3DA" fill-opacity="0.4"/>
<path fill-rule="evenodd" clip-rule="evenodd" d="M15 1H11V18H15V1ZM11 0C10.4477 0 10 0.447716 10 1V18C10 18.5523 10.4477 19 11 19H15C15.5523 19 16 18.5523 16 18V1C16 0.447716 15.5523 0 15 0H11ZM5 7H1V18H5V7ZM1 6C0.447716 6 0 6.44772 0 7V18C0 18.5523 0.447716 19 1 19H5C5.55228 19 6 18.5523 6 18V7C6 6.44772 5.55228 6 5 6H1ZM21 9H25V18H21V9ZM20 9C20 8.44772 20.4477 8 21 8H25C25.5523 8 26 8.44772 26 9V18C26 18.5523 25.5523 19 25 19H21C20.4477 19 20 18.5523 20 18V9Z" fill="#2FB3DA"/>
</svg>
