<svg width="17" height="17" viewBox="0 0 17 17" fill="none" xmlns="http://www.w3.org/2000/svg">
<path d="M2.07031 2.07135L14.3768 6.16758L11.0991 7.89166L9.73366 8.61076L10.8256 9.70096L14.4549 13.3249L13.3292 14.4542L9.70348 10.8231L8.6115 9.72937L7.8924 11.0966L6.17365 14.3689L2.07031 2.07135ZM1.50923 0.727242C1.42933 0.727242 1.34588 0.73967 1.26243 0.764528C0.854045 0.89592 0.633875 1.33271 0.765267 1.75174L5.35333 15.5035C5.40838 15.6953 5.54154 15.8728 5.73331 15.9776C5.85049 16.0415 5.97478 16.0717 6.09907 16.0717C6.37784 16.0717 6.64772 15.9172 6.78089 15.658L8.89737 11.6275L12.7397 15.4769L12.7841 15.5159C12.9332 15.6651 13.1321 15.7397 13.331 15.7397C13.5298 15.7397 13.7287 15.6651 13.8761 15.5159L15.5131 13.8735C15.8168 13.5699 15.8168 13.0852 15.5131 12.7816L11.6264 8.90018L15.6516 6.7837C15.8292 6.68427 15.9606 6.54223 16.0263 6.33626C16.1648 5.92788 15.9375 5.49287 15.5415 5.36147L1.74183 0.764528C1.66726 0.73967 1.58913 0.727242 1.50923 0.727242Z" fill="#D5D5D5"/>
</svg>
