<svg width="16" height="20" viewBox="0 0 16 20" fill="none" xmlns="http://www.w3.org/2000/svg">
<path d="M9.1404 19.2553C8.58812 19.2591 8.03667 19.212 7.49304 19.1145C6.26709 18.8841 5.15442 18.2476 4.33443 17.3076C3.84473 16.7192 3.42134 16.0786 3.07192 15.3974C2.95459 15.1862 2.83726 14.9797 2.71523 14.7732C2.2477 13.9672 1.72552 13.1941 1.15235 12.4594C0.56099 11.7225 -0.0819964 10.7275 0.16675 9.55891C0.237494 9.22016 0.389501 8.90368 0.609687 8.63672C0.829872 8.36975 1.11164 8.16029 1.43073 8.02637C1.74982 7.89246 2.09668 7.83809 2.44144 7.86796C2.7862 7.89783 3.11854 8.01104 3.40984 8.19784C3.52214 8.26819 3.63026 8.34497 3.73368 8.42781V4.16626C3.746 3.6401 3.96625 3.14025 4.34624 2.7761C4.72623 2.41194 5.235 2.21315 5.7612 2.22322C5.9827 2.2236 6.20279 2.25844 6.41358 2.32648C6.5191 1.89426 6.76262 1.5082 7.10724 1.2268C7.45186 0.945395 7.87881 0.783979 8.3234 0.767002C8.76799 0.750024 9.20601 0.878411 9.57109 1.13271C9.93616 1.38701 10.2084 1.75337 10.3466 2.17629C10.5683 2.09865 10.8016 2.05899 11.0365 2.05896C11.5627 2.04888 12.0715 2.24768 12.4515 2.61183C12.8315 2.97598 13.0517 3.47584 13.064 4.002V4.80456C13.2637 4.74573 13.4707 4.7157 13.6789 4.71538C14.2183 4.69723 14.7435 4.89 15.1431 5.25278C15.5427 5.61556 15.7851 6.11979 15.819 6.65842C15.819 6.79453 15.941 10.5492 15.819 12.3561C15.5374 16.7397 13.0969 19.2553 9.1404 19.2553ZM2.25528 9.26792C2.15868 9.26852 2.06309 9.28764 1.97368 9.32424C1.86463 9.37109 1.7687 9.44391 1.69425 9.53636C1.61981 9.6288 1.56911 9.73805 1.54659 9.85459C1.41987 10.4413 1.83288 11.0561 2.25059 11.5817C2.86564 12.3664 3.42549 13.1929 3.92611 14.0551L4.30158 14.7075C4.60657 15.3001 4.97142 15.86 5.39043 16.3783C6.00311 17.0742 6.82773 17.5492 7.7371 17.73C8.20172 17.8131 8.67313 17.8524 9.1451 17.8473C13.2048 17.8473 14.2608 14.8107 14.4345 12.2576C14.5518 10.5257 14.4345 6.71944 14.4345 6.68189C14.4345 6.39091 14.0684 6.12339 13.7023 6.12339C13.5502 6.11431 13.4006 6.16526 13.2856 6.26531C13.1707 6.36535 13.0995 6.5065 13.0875 6.65842V10.2488C13.0875 10.4355 13.0133 10.6146 12.8813 10.7466C12.7493 10.8787 12.5702 10.9528 12.3835 10.9528C12.1968 10.9528 12.0177 10.8787 11.8857 10.7466C11.7537 10.6146 11.6795 10.4355 11.6795 10.2488V4.002C11.6609 3.85082 11.5876 3.71168 11.4735 3.61078C11.3594 3.50988 11.2123 3.45419 11.06 3.45419C10.9077 3.45419 10.7606 3.50988 10.6465 3.61078C10.5324 3.71168 10.4591 3.85082 10.4405 4.002V10.2582C10.4405 10.4449 10.3663 10.624 10.2343 10.756C10.1022 10.888 9.92317 10.9622 9.73646 10.9622C9.54975 10.9622 9.37068 10.888 9.23866 10.756C9.10663 10.624 9.03246 10.4449 9.03246 10.2582V2.68786C9.01009 2.5402 8.93552 2.40544 8.82228 2.30806C8.70904 2.21069 8.56464 2.15714 8.41529 2.15714C8.26593 2.15714 8.12153 2.21069 8.00829 2.30806C7.89505 2.40544 7.82048 2.5402 7.79811 2.68786V10.2488C7.79811 10.4355 7.72394 10.6146 7.59191 10.7466C7.45989 10.8787 7.28082 10.9528 7.09411 10.9528C6.9074 10.9528 6.72833 10.8787 6.59631 10.7466C6.46428 10.6146 6.39011 10.4355 6.39011 10.2488V4.14749C6.37147 3.99632 6.29819 3.85718 6.18408 3.75628C6.06997 3.65538 5.92291 3.59968 5.77059 3.59968C5.61827 3.59968 5.47121 3.65538 5.3571 3.75628C5.24299 3.85718 5.16971 3.99632 5.15107 4.14749V10.3427C5.15107 10.5286 5.07755 10.707 4.94654 10.8388C4.81552 10.9707 4.63766 11.0455 4.45176 11.0467C4.30652 11.0463 4.16495 11.001 4.04648 10.9169C3.928 10.8329 3.83842 10.7143 3.79 10.5774L3.72899 10.4929C3.63512 10.3521 3.53656 10.216 3.43331 10.0799C3.22372 9.79666 2.96644 9.55208 2.67299 9.35709C2.54542 9.2873 2.40023 9.25631 2.25528 9.26792Z" fill="#D5D5D5"/>
</svg>
