<svg width="21" height="19" viewBox="0 0 21 19" fill="none" xmlns="http://www.w3.org/2000/svg">
    <path fill-rule="evenodd" clip-rule="evenodd"
        d="M8.50002 1.5V5.66162L7.00002 4.26876V1C7.00002 0.447715 7.44774 0 8.00002 0H20C20.5523 0 21 0.447715 21 1V18C21 18.5523 20.5523 19 20 19H8.00002C7.44774 19 7.00002 18.5523 7.00002 18V15.4116L8.50002 14.0187V17.5H19.5V1.5H8.50002ZM6.31066 6.18749L9.73926 9.38754C10.007 9.63746 10.007 10.0426 9.73926 10.2925L6.31066 13.4926C6.04289 13.7425 5.60882 13.7425 5.34105 13.4926C5.07327 13.2426 5.07327 12.8375 5.34105 12.5876L7.59913 10.48H1.02582C0.646953 10.48 0.340088 10.1936 0.340088 9.84001C0.340088 9.4864 0.646953 9.19999 1.02582 9.19999H7.59913L5.34105 7.09243C5.20732 6.96763 5.14013 6.80378 5.14013 6.63994C5.14013 6.47609 5.20699 6.31225 5.34105 6.18744C5.60882 5.93752 6.04289 5.93752 6.31066 6.18744V6.18749ZM15 14.5276C15 15.0799 14.5523 15.5276 14 15.5276C13.4477 15.5276 13 15.0799 13 14.5276C13 13.9753 13.4477 13.5276 14 13.5276C14.5523 13.5276 15 13.9753 15 14.5276Z"
        fill="#D5D5D5" />
</svg>