<svg width="15" height="18" viewBox="0 0 15 18" fill="none" xmlns="http://www.w3.org/2000/svg">
<path fill-rule="evenodd" clip-rule="evenodd" d="M7.70021 2.87414C7.58631 2.97609 7.41397 2.97609 7.30006 2.87414L4.6738 0.523539C4.46863 0.339903 4.59853 0 4.87388 0H10.1263C10.4017 0 10.5316 0.339898 10.3264 0.523536L7.70021 2.87414ZM6.75 5.30097C6.75 5.13528 6.88431 5.00097 7.05 5.00097H7.95C8.11569 5.00097 8.25 5.13528 8.25 5.30097V9.28222H14.2C14.6418 9.28222 15 9.64039 15 10.0822V11.9822C15 12.424 14.6418 12.7822 14.2 12.7822H8.25V17.701C8.25 17.8667 8.11569 18.001 7.95 18.001H7.05C6.88431 18.001 6.75 17.8667 6.75 17.701V12.7822H0.800001C0.358174 12.7822 0 12.424 0 11.9822V10.0822C0 9.64039 0.358172 9.28222 0.8 9.28222H6.75V5.30097ZM1 10.2822H6.75V11.7822H1L1 10.2822ZM8.25 10.2822V11.7822H14V10.2822H8.25Z" fill="#D5D5D5"/>
</svg>
