<svg width="15" height="15" viewBox="0 0 15 15" fill="none" xmlns="http://www.w3.org/2000/svg">
<path d="M7.91667 0.416504C9.82917 0.416504 11.6 1.12484 12.9458 2.47067C13.0875 2.68317 13.3708 2.89567 13.5833 3.179V1.83317C13.5833 1.40817 13.8667 1.12484 14.2917 1.12484C14.7167 1.12484 15 1.40817 15 1.83317V5.304C14.9292 5.37484 14.8583 5.37484 14.8583 5.37484C14.8583 5.44567 14.7875 5.44567 14.7875 5.5165C14.7875 5.5165 14.7167 5.5165 14.7167 5.58734C14.6458 5.58734 14.6458 5.65817 14.575 5.65817H11.175C10.75 5.65817 10.4667 5.37484 10.4667 4.94984C10.4667 4.52484 10.75 4.2415 11.175 4.2415H12.6625C12.3792 3.95817 12.0958 3.604 11.8833 3.3915C10.8208 2.39984 9.40417 1.83317 7.91667 1.83317C4.8 1.83317 2.25 4.38317 2.25 7.49984C2.25 10.6165 4.8 13.1665 7.91667 13.1665C9.40417 13.1665 10.8208 12.5998 11.9542 11.5373C12.2375 11.254 12.6625 11.254 12.9458 11.5373C13.2292 11.8207 13.2292 12.2457 12.9458 12.529C11.6 13.8748 9.82917 14.5832 7.91667 14.5832C4.02083 14.5832 0.833333 11.3957 0.833333 7.49984C0.833333 3.604 4.02083 0.416504 7.91667 0.416504Z" fill="#D5D5D5"/>
</svg>
