<svg width="15" height="15" viewBox="0 0 15 15" fill="none" xmlns="http://www.w3.org/2000/svg">
<path d="M7.50008 0.416664C5.58758 0.416664 3.81675 1.125 2.47091 2.47083C2.32925 2.68333 2.04591 2.89583 1.83341 3.17916V1.83333C1.83341 1.40833 1.55008 1.125 1.12508 1.125C0.700081 1.125 0.416748 1.40833 0.416748 1.83333V5.30416C0.487581 5.375 0.558415 5.375 0.558415 5.375C0.558415 5.44583 0.629248 5.44583 0.629248 5.51666C0.629248 5.51666 0.700081 5.51666 0.700081 5.5875C0.770915 5.5875 0.770915 5.65833 0.841748 5.65833H4.24175C4.66675 5.65833 4.95008 5.375 4.95008 4.95C4.95008 4.525 4.66675 4.24166 4.24175 4.24166H2.75425C3.03758 3.95833 3.32091 3.60416 3.53341 3.39166C4.59591 2.4 6.01258 1.83333 7.50008 1.83333C10.6167 1.83333 13.1667 4.38333 13.1667 7.5C13.1667 10.6167 10.6167 13.1667 7.50008 13.1667C6.01258 13.1667 4.59591 12.6 3.46258 11.5375C3.17925 11.2542 2.75425 11.2542 2.47091 11.5375C2.18758 11.8208 2.18758 12.2458 2.47091 12.5292C3.81675 13.875 5.58758 14.5833 7.50008 14.5833C11.3959 14.5833 14.5834 11.3958 14.5834 7.5C14.5834 3.60416 11.3959 0.416664 7.50008 0.416664Z" fill="#D5D5D5"/>
</svg>
