<svg width="25" height="25" viewBox="0 0 25 25" fill="none" xmlns="http://www.w3.org/2000/svg">
<path d="M12.4917 20.1214C16.8397 20.1214 20.3618 16.5868 20.3618 12.2581C20.3618 7.92934 16.8241 4.39473 12.4917 4.39473C8.14363 4.39473 4.62155 7.92934 4.62155 12.2581C4.62155 16.5868 8.14363 20.1214 12.4917 20.1214ZM12.4917 21.2581C7.52025 21.2581 3.48389 17.2252 3.48389 12.2581C3.48389 7.29093 7.52025 3.25806 12.4917 3.25806C17.4631 3.25806 21.4839 7.29093 21.4839 12.2581C21.4839 17.2252 17.4631 21.2581 12.4917 21.2581Z" fill="white"/>
<path fill-rule="evenodd" clip-rule="evenodd" d="M14.607 10.2418C14.607 11.4054 13.6637 12.3487 12.5001 12.3487C11.3365 12.3487 10.3932 11.4054 10.3932 10.2418C10.3932 9.07824 11.3365 8.13495 12.5001 8.13495C13.6637 8.13495 14.607 9.07824 14.607 10.2418ZM15.1145 10.2418C15.1145 11.6857 13.944 12.8562 12.5001 12.8562C11.0562 12.8562 9.88572 11.6857 9.88572 10.2418C9.88572 8.79795 11.0562 7.62744 12.5001 7.62744C13.944 7.62744 15.1145 8.79795 15.1145 10.2418ZM12.5001 13.5121C10.9842 13.5121 9.71684 14.5781 9.40733 16.0013H8.88965C9.20706 14.2957 10.7026 13.0046 12.5001 13.0046C14.2976 13.0046 15.7932 14.2957 16.1106 16.0013H15.5929C15.2834 14.5781 14.0161 13.5121 12.5001 13.5121Z" fill="white"/>
<path d="M9.40733 16.0013V16.3013H9.6491L9.70048 16.065L9.40733 16.0013ZM8.88965 16.0013L8.59471 15.9464L8.52866 16.3013H8.88965V16.0013ZM16.1106 16.0013V16.3013H16.4716L16.4055 15.9464L16.1106 16.0013ZM15.5929 16.0013L15.2998 16.065L15.3511 16.3013H15.5929V16.0013ZM12.5001 12.6487C13.8294 12.6487 14.907 11.5711 14.907 10.2418H14.307C14.307 11.2398 13.498 12.0487 12.5001 12.0487V12.6487ZM10.0932 10.2418C10.0932 11.5711 11.1708 12.6487 12.5001 12.6487V12.0487C11.5022 12.0487 10.6932 11.2398 10.6932 10.2418H10.0932ZM12.5001 7.83495C11.1708 7.83495 10.0932 8.91255 10.0932 10.2418H10.6932C10.6932 9.24392 11.5022 8.43495 12.5001 8.43495V7.83495ZM14.907 10.2418C14.907 8.91255 13.8294 7.83495 12.5001 7.83495V8.43495C13.498 8.43495 14.307 9.24392 14.307 10.2418H14.907ZM12.5001 13.1562C14.1097 13.1562 15.4145 11.8514 15.4145 10.2418H14.8145C14.8145 11.52 13.7783 12.5562 12.5001 12.5562V13.1562ZM9.58572 10.2418C9.58572 11.8514 10.8905 13.1562 12.5001 13.1562V12.5562C11.2219 12.5562 10.1857 11.52 10.1857 10.2418H9.58572ZM12.5001 7.32744C10.8905 7.32744 9.58572 8.63226 9.58572 10.2418H10.1857C10.1857 8.96363 11.2219 7.92744 12.5001 7.92744V7.32744ZM15.4145 10.2418C15.4145 8.63226 14.1097 7.32744 12.5001 7.32744V7.92744C13.7783 7.92744 14.8145 8.96363 14.8145 10.2418H15.4145ZM9.70048 16.065C9.98063 14.7769 11.1282 13.8121 12.5001 13.8121V13.2121C10.8401 13.2121 9.45306 14.3794 9.11418 15.9375L9.70048 16.065ZM8.88965 16.3013H9.40733V15.7013H8.88965V16.3013ZM12.5001 12.7046C10.5555 12.7046 8.93808 14.1014 8.59471 15.9464L9.18458 16.0562C9.47605 14.4901 10.8498 13.3046 12.5001 13.3046V12.7046ZM16.4055 15.9464C16.0621 14.1014 14.4448 12.7046 12.5001 12.7046V13.3046C14.1504 13.3046 15.5242 14.4901 15.8156 16.0562L16.4055 15.9464ZM15.5929 16.3013H16.1106V15.7013H15.5929V16.3013ZM12.5001 13.8121C13.872 13.8121 15.0196 14.7769 15.2998 16.065L15.886 15.9375C15.5472 14.3794 14.1601 13.2121 12.5001 13.2121V13.8121Z" fill="white"/>
</svg>
