<svg width="19" height="19" viewBox="0 0 19 19" fill="none" xmlns="http://www.w3.org/2000/svg">
<path d="M9.49168 17.1214C13.8397 17.1214 17.3618 13.5868 17.3618 9.25806C17.3618 4.92934 13.8241 1.39473 9.49168 1.39473C5.14363 1.39473 1.62155 4.92934 1.62155 9.25806C1.62155 13.5868 5.14363 17.1214 9.49168 17.1214ZM9.49168 18.2581C4.52025 18.2581 0.483887 14.2252 0.483887 9.25806C0.483887 4.29093 4.52025 0.258057 9.49168 0.258057C14.4631 0.258057 18.4839 4.29093 18.4839 9.25806C18.4839 14.2252 14.4631 18.2581 9.49168 18.2581Z" fill="white"/>
<path fill-rule="evenodd" clip-rule="evenodd" d="M11.607 7.24184C11.607 8.40544 10.6637 9.34873 9.50012 9.34873C8.33652 9.34873 7.39323 8.40544 7.39323 7.24184C7.39323 6.07824 8.33652 5.13495 9.50012 5.13495C10.6637 5.13495 11.607 6.07824 11.607 7.24184ZM12.1145 7.24184C12.1145 8.68573 10.944 9.85624 9.50012 9.85624C8.05623 9.85624 6.88572 8.68573 6.88572 7.24184C6.88572 5.79795 8.05623 4.62744 9.50012 4.62744C10.944 4.62744 12.1145 5.79795 12.1145 7.24184ZM9.50011 10.5121C7.98416 10.5121 6.71684 11.5781 6.40733 13.0013H5.88965C6.20706 11.2957 7.70264 10.0046 9.50011 10.0046C11.2976 10.0046 12.7932 11.2957 13.1106 13.0013H12.5929C12.2834 11.5781 11.0161 10.5121 9.50011 10.5121Z" fill="white"/>
<path d="M6.40733 13.0013V13.3013H6.6491L6.70048 13.065L6.40733 13.0013ZM5.88965 13.0013L5.59471 12.9464L5.52866 13.3013H5.88965V13.0013ZM13.1106 13.0013V13.3013H13.4716L13.4055 12.9464L13.1106 13.0013ZM12.5929 13.0013L12.2998 13.065L12.3511 13.3013H12.5929V13.0013ZM9.50012 9.64873C10.8294 9.64873 11.907 8.57113 11.907 7.24184H11.307C11.307 8.23976 10.498 9.04873 9.50012 9.04873V9.64873ZM7.09323 7.24184C7.09323 8.57113 8.17083 9.64873 9.50012 9.64873V9.04873C8.5022 9.04873 7.69323 8.23976 7.69323 7.24184H7.09323ZM9.50012 4.83495C8.17083 4.83495 7.09323 5.91255 7.09323 7.24184H7.69323C7.69323 6.24392 8.5022 5.43495 9.50012 5.43495V4.83495ZM11.907 7.24184C11.907 5.91255 10.8294 4.83495 9.50012 4.83495V5.43495C10.498 5.43495 11.307 6.24392 11.307 7.24184H11.907ZM9.50012 10.1562C11.1097 10.1562 12.4145 8.85142 12.4145 7.24184H11.8145C11.8145 8.52005 10.7783 9.55624 9.50012 9.55624V10.1562ZM6.58572 7.24184C6.58572 8.85142 7.89054 10.1562 9.50012 10.1562V9.55624C8.22191 9.55624 7.18572 8.52005 7.18572 7.24184H6.58572ZM9.50012 4.32744C7.89054 4.32744 6.58572 5.63226 6.58572 7.24184H7.18572C7.18572 5.96363 8.22191 4.92744 9.50012 4.92744V4.32744ZM12.4145 7.24184C12.4145 5.63226 11.1097 4.32744 9.50012 4.32744V4.92744C10.7783 4.92744 11.8145 5.96363 11.8145 7.24184H12.4145ZM6.70048 13.065C6.98063 11.7769 8.12821 10.8121 9.50011 10.8121V10.2121C7.84012 10.2121 6.45306 11.3794 6.11418 12.9375L6.70048 13.065ZM5.88965 13.3013H6.40733V12.7013H5.88965V13.3013ZM9.50011 9.70464C7.55547 9.70464 5.93808 11.1014 5.59471 12.9464L6.18458 13.0562C6.47605 11.4901 7.8498 10.3046 9.50011 10.3046V9.70464ZM13.4055 12.9464C13.0621 11.1014 11.4448 9.70464 9.50011 9.70464V10.3046C11.1504 10.3046 12.5242 11.4901 12.8156 13.0562L13.4055 12.9464ZM12.5929 13.3013H13.1106V12.7013H12.5929V13.3013ZM9.50011 10.8121C10.872 10.8121 12.0196 11.7769 12.2998 13.065L12.886 12.9375C12.5472 11.3794 11.1601 10.2121 9.50011 10.2121V10.8121Z" fill="white"/>
</svg>
