<svg width="18" height="18" viewBox="0 0 18 18" fill="none" xmlns="http://www.w3.org/2000/svg">
<path d="M9 18C4 18 0 14 0 9C0 4 4 0 9 0C14 0 18 4 18 9C18 14 14 18 9 18ZM9 16.8C13.3 16.8 16.8 13.3 16.8 9C16.8 4.7 13.3 1.2 9 1.2C4.7 1.2 1.2 4.7 1.2 9C1.2 13.3 4.7 16.8 9 16.8ZM9.2 4.6C10 4.6 10.7 4.8 11.2 5.3C11.7 5.7 12 6.4 12 7.1C12 7.7 11.8 8.3 11.5 8.7C11.4 8.8 11 9.2 10.4 9.7C10.2 9.9 10 10.1 9.9 10.4C9.8 10.7 9.7 11 9.7 11.2V11.4H8.3V11.2C8.3 10.7 8.4 10.3 8.6 10C8.8 9.6 9.3 9.1 10 8.4L10.2 8.2C10.4 7.9 10.6 7.6 10.6 7.3C10.6 6.9 10.5 6.5 10.2 6.3C9.9 6 9.6 5.9 9.1 5.9C8.5 5.9 8.1 6.1 7.8 6.4C7.6 6.7 7.5 7.1 7.5 7.7H6.2C6.2 6.8 6.5 6 7 5.5C7.5 4.9 8.3 4.6 9.2 4.6ZM9 12.1C9.3 12.1 9.5 12.2 9.7 12.4C9.9 12.6 10 12.8 10 13.1C10 13.4 9.9 13.6 9.7 13.8C9.5 14 9.3 14.1 9 14.1C8.5 14.1 8.1 13.7 8.1 13.2C8.1 12.9 8.2 12.7 8.4 12.5C8.5 12.2 8.8 12.1 9 12.1Z" fill="white"/>
</svg>
