<svg width="17" height="17" viewBox="0 0 17 17" fill="none" xmlns="http://www.w3.org/2000/svg">
  <path
    d="M16.4187 8.51275C16.4187 12.6786 13.0415 16.0558 8.87563 16.0558C4.70973 16.0558 1.3326 12.6786 1.3326 8.51275C1.3326 4.34685 4.70973 0.969727 8.87563 0.969727C13.0415 0.969727 16.4187 4.34685 16.4187 8.51275Z"
    fill="#2A3136" />
  <path fill-rule="evenodd" clip-rule="evenodd"
    d="M8.87563 1.42567C4.96211 1.42567 1.78958 4.5982 1.78958 8.51172C1.78958 12.4252 4.96211 15.5978 8.87563 15.5978C12.7891 15.5978 15.9617 12.4252 15.9617 8.51172C15.9617 4.5982 12.7891 1.42567 8.87563 1.42567ZM0.875626 8.51172C0.875626 4.09344 4.45735 0.511719 8.87563 0.511719C13.2939 0.511719 16.8756 4.09344 16.8756 8.51172C16.8756 12.93 13.2939 16.5117 8.87563 16.5117C4.45735 16.5117 0.875626 12.93 0.875626 8.51172Z"
    fill="white" />
  <path fill-rule="evenodd" clip-rule="evenodd"
    d="M6.98716 9.7478C7.08349 9.65148 7.08349 9.4953 6.98716 9.39897C6.89084 9.30264 6.73466 9.30264 6.63833 9.39897L5.25343 10.7839C5.15711 10.8802 5.15711 11.0364 5.25343 11.1327L6.63833 12.5176C6.73466 12.6139 6.89084 12.6139 6.98717 12.5176C7.08349 12.4213 7.08349 12.2651 6.98717 12.1688L6.02372 11.2053H11.3367C12.0179 11.2053 12.57 10.6531 12.57 9.972V8.20803C12.57 8.0718 12.4596 7.96137 12.3234 7.96137C12.1871 7.96137 12.0767 8.0718 12.0767 8.20803V9.972C12.0767 10.3807 11.7454 10.712 11.3367 10.712H6.02298L6.98716 9.7478Z"
    fill="white" />
  <path
    d="M6.98716 9.39897L6.91645 9.46968V9.46968L6.98716 9.39897ZM6.98716 9.7478L6.91645 9.67709V9.67709L6.98716 9.7478ZM6.63833 9.39897L6.56762 9.32826L6.63833 9.39897ZM5.25343 10.7839L5.18272 10.7132V10.7132L5.25343 10.7839ZM5.25343 11.1327L5.18272 11.2034V11.2034L5.25343 11.1327ZM6.63833 12.5176L6.56762 12.5883V12.5883L6.63833 12.5176ZM6.98717 12.5176L7.05788 12.5883V12.5883L6.98717 12.5176ZM6.98717 12.1688L7.05788 12.0981V12.0981L6.98717 12.1688ZM6.02372 11.2053V11.1053C5.98327 11.1053 5.94681 11.1297 5.93133 11.167C5.91585 11.2044 5.92441 11.2474 5.95301 11.276L6.02372 11.2053ZM6.02298 10.712L5.95227 10.6413C5.92367 10.6699 5.91511 10.7129 5.93059 10.7503C5.94607 10.7876 5.98253 10.812 6.02298 10.812V10.712ZM6.91645 9.46968C6.97373 9.52696 6.97373 9.61982 6.91645 9.67709L7.05788 9.81851C7.19326 9.68313 7.19326 9.46364 7.05788 9.32826L6.91645 9.46968ZM6.70904 9.46968C6.76632 9.4124 6.85918 9.4124 6.91645 9.46968L7.05788 9.32826C6.9225 9.19288 6.703 9.19288 6.56762 9.32826L6.70904 9.46968ZM5.32414 10.8546L6.70904 9.46968L6.56762 9.32826L5.18272 10.7132L5.32414 10.8546ZM5.32414 11.062C5.26687 11.0047 5.26687 10.9119 5.32414 10.8546L5.18272 10.7132C5.04734 10.8485 5.04734 11.068 5.18272 11.2034L5.32414 11.062ZM6.70904 12.4469L5.32414 11.062L5.18272 11.2034L6.56762 12.5883L6.70904 12.4469ZM6.91645 12.4469C6.85918 12.5042 6.76632 12.5042 6.70904 12.4469L6.56762 12.5883C6.703 12.7237 6.9225 12.7237 7.05788 12.5883L6.91645 12.4469ZM6.91645 12.2395C6.97373 12.2967 6.97373 12.3896 6.91645 12.4469L7.05788 12.5883C7.19326 12.4529 7.19326 12.2334 7.05788 12.0981L6.91645 12.2395ZM5.95301 11.276L6.91645 12.2395L7.05788 12.0981L6.09443 11.1346L5.95301 11.276ZM11.3367 11.1053H6.02372V11.3053H11.3367V11.1053ZM12.47 9.972C12.47 10.5979 11.9626 11.1053 11.3367 11.1053V11.3053C12.0731 11.3053 12.67 10.7084 12.67 9.972H12.47ZM12.47 8.20803V9.972H12.67V8.20803H12.47ZM12.3234 8.06137C12.4044 8.06137 12.47 8.12703 12.47 8.20803H12.67C12.67 8.01657 12.5148 7.86137 12.3234 7.86137V8.06137ZM12.1767 8.20803C12.1767 8.12703 12.2424 8.06137 12.3234 8.06137V7.86137C12.1319 7.86137 11.9767 8.01657 11.9767 8.20803H12.1767ZM12.1767 9.972V8.20803H11.9767V9.972H12.1767ZM11.3367 10.812C11.8006 10.812 12.1767 10.4359 12.1767 9.972H11.9767C11.9767 10.3255 11.6902 10.612 11.3367 10.612V10.812ZM6.02298 10.812H11.3367V10.612H6.02298V10.812ZM6.91645 9.67709L5.95227 10.6413L6.09369 10.7827L7.05788 9.81851L6.91645 9.67709Z"
    fill="white" />
  <path fill-rule="evenodd" clip-rule="evenodd"
    d="M10.764 7.27661C10.6677 7.37294 10.6677 7.52912 10.764 7.62544C10.8604 7.72177 11.0165 7.72177 11.1129 7.62544L12.4978 6.24055C12.5941 6.14422 12.5941 5.98804 12.4978 5.89171L11.1129 4.50682C11.0165 4.41049 10.8604 4.41049 10.764 4.50682C10.6677 4.60314 10.6677 4.75932 10.764 4.85565L11.7275 5.8191H6.41448C5.73334 5.8191 5.18117 6.37127 5.18117 7.05241V8.81639C5.18117 8.95261 5.2916 9.06305 5.42783 9.06305C5.56406 9.06305 5.67449 8.95261 5.67449 8.81639V7.05241C5.67449 6.64373 6.0058 6.31242 6.41448 6.31242H11.7282L10.764 7.27661Z"
    fill="white" />
  <path
    d="M10.764 7.62544L10.8347 7.55473V7.55473L10.764 7.62544ZM10.764 7.27661L10.8347 7.34732V7.34732L10.764 7.27661ZM11.1129 7.62544L11.1836 7.69616L11.1129 7.62544ZM12.4978 6.24055L12.5685 6.31126V6.31126L12.4978 6.24055ZM12.4978 5.89171L12.5685 5.821V5.821L12.4978 5.89171ZM11.1129 4.50682L11.1836 4.43611V4.43611L11.1129 4.50682ZM10.764 4.50682L10.6933 4.43611V4.43611L10.764 4.50682ZM10.764 4.85565L10.6933 4.92636V4.92636L10.764 4.85565ZM11.7275 5.8191V5.9191C11.7679 5.9191 11.8044 5.89473 11.8199 5.85736C11.8353 5.82 11.8268 5.77699 11.7982 5.74839L11.7275 5.8191ZM11.7282 6.31242L11.7989 6.38313C11.8275 6.35453 11.8361 6.31152 11.8206 6.27415C11.8051 6.23679 11.7687 6.21242 11.7282 6.21242V6.31242ZM10.8347 7.55473C10.7775 7.49746 10.7775 7.4046 10.8347 7.34732L10.6933 7.2059C10.5579 7.34128 10.5579 7.56078 10.6933 7.69616L10.8347 7.55473ZM11.0422 7.55473C10.9849 7.61201 10.892 7.61201 10.8347 7.55473L10.6933 7.69616C10.8287 7.83154 11.0482 7.83154 11.1836 7.69616L11.0422 7.55473ZM12.427 6.16984L11.0422 7.55473L11.1836 7.69616L12.5685 6.31126L12.427 6.16984ZM12.427 5.96242C12.4843 6.0197 12.4843 6.11256 12.427 6.16984L12.5685 6.31126C12.7038 6.17588 12.7038 5.95638 12.5685 5.821L12.427 5.96242ZM11.0422 4.57753L12.427 5.96242L12.5685 5.821L11.1836 4.43611L11.0422 4.57753ZM10.8347 4.57753C10.892 4.52025 10.9849 4.52025 11.0422 4.57753L11.1836 4.43611C11.0482 4.30073 10.8287 4.30073 10.6933 4.43611L10.8347 4.57753ZM10.8347 4.78494C10.7775 4.72766 10.7775 4.6348 10.8347 4.57753L10.6933 4.43611C10.5579 4.57149 10.5579 4.79098 10.6933 4.92636L10.8347 4.78494ZM11.7982 5.74839L10.8347 4.78494L10.6933 4.92636L11.6568 5.88981L11.7982 5.74839ZM6.41448 5.9191H11.7275V5.7191H6.41448V5.9191ZM5.28117 7.05241C5.28117 6.4265 5.78857 5.9191 6.41448 5.9191V5.7191C5.67811 5.7191 5.08117 6.31604 5.08117 7.05241H5.28117ZM5.28117 8.81639V7.05241H5.08117V8.81639H5.28117ZM5.42783 8.96305C5.34683 8.96305 5.28117 8.89738 5.28117 8.81639H5.08117C5.08117 9.00784 5.23637 9.16305 5.42783 9.16305V8.96305ZM5.57449 8.81639C5.57449 8.89738 5.50883 8.96305 5.42783 8.96305V9.16305C5.61929 9.16305 5.77449 9.00784 5.77449 8.81639H5.57449ZM5.57449 7.05241V8.81639H5.77449V7.05241H5.57449ZM6.41448 6.21242C5.95057 6.21242 5.57449 6.5885 5.57449 7.05241H5.77449C5.77449 6.69896 6.06103 6.41242 6.41448 6.41242V6.21242ZM11.7282 6.21242H6.41448V6.41242H11.7282V6.21242ZM10.8347 7.34732L11.7989 6.38313L11.6575 6.24171L10.6933 7.2059L10.8347 7.34732Z"
    fill="white" />
</svg>