<svg width="30" height="22" viewBox="0 0 30 22" fill="none" xmlns="http://www.w3.org/2000/svg">
<path fill-rule="evenodd" clip-rule="evenodd" d="M3 12C1.89543 12 1 12.8954 1 14V19C1 20.1046 1.89543 21 3 21C4.10457 21 5 20.1046 5 19V14C5 12.8954 4.10457 12 3 12ZM27 12C25.8954 12 25 12.8954 25 14V19C25 20.1046 25.8954 21 27 21C28.1046 21 29 20.1046 29 19V14C29 12.8954 28.1046 12 27 12Z" fill="white" fill-opacity="0.4"/>
<path fill-rule="evenodd" clip-rule="evenodd" d="M25.6143 14.1198L25.6143 18.4678L25.6143 19.0446C25.6143 19.8796 26.2939 20.5622 27.1318 20.5622C27.9668 20.5622 28.6494 19.8825 28.6494 19.0446V14.1198C28.6465 13.2849 27.9668 12.6022 27.1318 12.6022C26.2969 12.6022 25.6143 13.2819 25.6143 14.1198ZM25.6143 11.0615V12.4765C26.0136 12.1075 26.547 11.8815 27.1318 11.8815C28.3652 11.8815 29.3701 12.8864 29.3701 14.1198V19.0446C29.3701 20.278 28.3652 21.2829 27.1318 21.2829C25.8984 21.2829 24.8936 20.278 24.8936 19.0446V18.4707V14.1198V11.0615C24.8936 9.7373 24.6328 8.44824 24.1143 7.23242C23.6162 6.05762 22.9014 5.00293 21.9961 4.09473C21.0879 3.18652 20.0332 2.47461 18.8584 1.97656C17.6426 1.46094 16.3564 1.19727 15.0293 1.19727C13.7051 1.19727 12.416 1.45801 11.2002 1.97656C10.0254 2.47461 8.9707 3.18945 8.0625 4.09473C7.1543 5.00293 6.44238 6.05762 5.94434 7.23242C5.42871 8.44824 5.16504 9.73437 5.16504 11.0615V14.1201V18.4678V19.0449C5.16797 20.2783 4.16309 21.2832 2.92676 21.2832C1.69336 21.2832 0.688477 20.2783 0.688477 19.0449V14.1201C0.688477 12.8867 1.69336 11.8818 2.92676 11.8818C3.51158 11.8818 4.04503 12.1078 4.44434 12.4768V11.0615C4.44434 9.63769 4.72559 8.25488 5.2793 6.95117C5.81543 5.6914 6.58008 4.56055 7.55273 3.58496C8.52539 2.6123 9.65918 1.84766 10.9189 1.31152C12.2227 0.757812 13.6055 0.476562 15.0293 0.476562C16.4531 0.476562 17.8359 0.757812 19.1396 1.31152C20.3994 1.84766 21.5303 2.6123 22.5059 3.58496C23.4785 4.55762 24.2432 5.6914 24.7793 6.95117C25.333 8.25488 25.6143 9.63769 25.6143 11.0615ZM2.92676 12.6025C3.76465 12.6025 4.44434 13.2852 4.44434 14.1201L4.44434 18.4678L4.44434 19.0449C4.44434 19.8828 3.76172 20.5625 2.92676 20.5625C2.08887 20.5625 1.40918 19.8799 1.40918 19.0449V14.1201C1.40918 13.2822 2.0918 12.6025 2.92676 12.6025ZM15.3662 18.3444C15.3926 18.3474 15.4189 18.3503 15.4453 18.3503C15.6064 18.3503 15.7617 18.2683 15.8525 18.1276L17.4873 15.4997H21.501C21.7617 15.4997 21.9727 15.2888 21.9727 15.028C21.9727 14.7673 21.7617 14.5563 21.501 14.5563H17.2236C17.0596 14.5563 16.9072 14.6413 16.8223 14.779L15.6621 16.6423L14.4492 11.0671C14.4082 10.8825 14.2617 10.739 14.0742 10.7038C13.8867 10.6686 13.6992 10.7477 13.5938 10.906L11.0215 14.7643H8.56055C8.2998 14.7643 8.08887 14.9753 8.08887 15.236C8.08887 15.4968 8.2998 15.7077 8.56055 15.7077H11.2734C11.4316 15.7077 11.5781 15.6286 11.666 15.4968L13.7607 12.3532L14.9854 17.9782C15.0264 18.1686 15.1758 18.3122 15.3662 18.3444Z" fill="white"/>
</svg>
