<svg width="23" height="22" viewBox="0 0 23 22" fill="none" xmlns="http://www.w3.org/2000/svg">
<path fill-rule="evenodd" clip-rule="evenodd" d="M18.6535 17.0922C20.6417 17.0922 22.2535 16.0043 22.2535 14.6622C22.2535 13.3202 20.6417 12.2322 18.6535 12.2322C16.6652 12.2322 15.0535 13.3202 15.0535 14.6622C15.0535 16.0043 16.6652 17.0922 18.6535 17.0922ZM3.8998 21.2999C5.88803 21.2999 7.4998 20.212 7.4998 18.8699C7.4998 17.5279 5.88803 16.4399 3.8998 16.4399C1.91158 16.4399 0.299805 17.5279 0.299805 18.8699C0.299805 20.212 1.91158 21.2999 3.8998 21.2999Z" fill="white" fill-opacity="0.4"/>
<path fill-rule="evenodd" clip-rule="evenodd" d="M6.68938 4.66652C6.68449 4.69015 6.6823 4.71424 6.68298 4.73854V6.92108C6.68282 6.92685 6.68282 6.93264 6.68298 6.93844V16.6876C6.00606 16.1749 5.05768 15.8557 4.00944 15.8557C1.95788 15.8557 0.288818 17.0784 0.288818 18.5813C0.288818 20.0842 1.95788 21.3069 4.00944 21.3069C6.05878 21.3069 7.72647 20.0869 7.73015 18.5862L7.73019 18.5813V7.22068L21.3477 3.71002V12.9068C20.6707 12.3942 19.7224 12.0751 18.6743 12.0751C16.6227 12.0751 14.9536 13.2978 14.9536 14.8006C14.9536 16.3036 16.6227 17.5264 18.6743 17.5264C20.7258 17.5264 22.3949 16.3037 22.3949 14.8006C22.3949 14.7972 22.3949 14.7937 22.3949 14.7902V3.15898C22.3951 3.15251 22.3951 3.14602 22.3949 3.13952V0.959078C22.3957 0.932593 22.3932 0.905783 22.387 0.878996C22.378 0.839439 22.3615 0.801866 22.3388 0.76717C22.2301 0.600543 21.9846 0.511703 21.7469 0.556866C21.7298 0.560085 21.713 0.563953 21.6966 0.568436L7.05582 4.34292C7.00421 4.35487 6.95596 4.3728 6.9124 4.39566C6.87267 4.41645 6.83735 4.44113 6.80704 4.46878C6.74641 4.52394 6.70463 4.59183 6.68938 4.66652ZM7.73019 5.02078V6.36897L21.3477 2.85829V1.51012L7.73019 5.02078ZM21.3477 14.7862V14.8007C21.3477 14.803 21.3477 14.8052 21.3477 14.8074C21.3426 15.8619 20.1453 16.7186 18.6743 16.7186C17.2001 16.7186 16.0008 15.8582 16.0008 14.8007C16.0008 13.7432 17.2001 12.8829 18.6743 12.8829C20.1417 12.8829 21.3368 13.7354 21.3477 14.7862ZM4.00944 16.6635C2.53531 16.6635 1.33598 17.5238 1.33598 18.5813C1.33598 19.6388 2.53526 20.4991 4.00944 20.4991C5.48362 20.4991 6.68295 19.6388 6.68295 18.5813C6.68299 17.5238 5.48366 16.6635 4.00944 16.6635Z" fill="white"/>
</svg>
