<svg width="27" height="16" viewBox="0 0 27 16" fill="none" xmlns="http://www.w3.org/2000/svg">
<path fill-rule="evenodd" clip-rule="evenodd" d="M26 1.5C26 1.22386 25.7761 1 25.5 1H10.9374C10.5897 1 10.2669 1.18062 10.0851 1.47699L2.25414 14.2385C2.04971 14.5716 2.28943 15 2.6803 15H25.5C25.7761 15 26 14.7761 26 14.5V1.5ZM10.9374 0C10.242 0 9.59646 0.361243 9.23274 0.953969L0.93453 14.477C0.525661 15.1433 1.0051 16 1.78685 16H26C26.5522 16 27 15.5523 27 15V1C27 0.447715 26.5522 0 26 0H10.9374Z" fill="#F4E23C"/>
</svg>
