<svg width="30" height="18" viewBox="0 0 30 18" fill="none" xmlns="http://www.w3.org/2000/svg">
<path d="M0 1.5C0 0.947715 0.447715 0.5 1 0.5H4.8151C5.36739 0.5 5.8151 0.947715 5.8151 1.5V16.9933C5.8151 17.5456 5.36739 17.9933 4.8151 17.9933H0.999999C0.447715 17.9933 0 17.5456 0 16.9933V1.5Z" fill="#2FB3DA" fill-opacity="0.4"/>
<path fill-rule="evenodd" clip-rule="evenodd" d="M4.8151 1.5H1L0.999999 16.9933H4.8151L4.8151 1.5ZM1 0.5C0.447715 0.5 0 0.947715 0 1.5V16.9933C0 17.5456 0.447715 17.9933 0.999999 17.9933H4.8151C5.36739 17.9933 5.8151 17.5456 5.8151 16.9933V1.5C5.8151 0.947715 5.36739 0.5 4.8151 0.5H1Z" fill="#2FB3DA"/>
<path fill-rule="evenodd" clip-rule="evenodd" d="M14.6006 5.69469C14.8759 5.26201 15.3532 5 15.8661 5H27.6808C28.5092 5 29.1808 5.67157 29.1808 6.5V16.5C29.1808 17.3284 28.5092 18 27.6808 18H9.50243C8.3188 18 7.60148 16.6933 8.23694 15.6947L14.6006 5.69469ZM15.8661 6C15.6951 6 15.536 6.08734 15.4442 6.23156L9.0806 16.2316C8.86878 16.5644 9.10789 17 9.50243 17H27.6808C27.9569 17 28.1808 16.7761 28.1808 16.5V6.5C28.1808 6.22386 27.9569 6 27.6808 6H15.8661Z" fill="#F4E23C"/>
</svg>
