<svg width="16" height="17" viewBox="0 0 16 17" fill="none" xmlns="http://www.w3.org/2000/svg">
<rect x="0.5" y="0.821289" width="15" height="15" rx="1.5" fill="#2BBED1" stroke="#2BBED1"/>
<path d="M3.91308 7.35645H3.91326C3.99256 7.35654 4.07081 7.3746 4.14213 7.40927C4.21341 7.44391 4.27591 7.49424 4.32497 7.55649L3.91308 7.35645ZM3.91308 7.35645H3.09394C2.89031 7.35645 2.7766 7.59104 2.90232 7.75049L2.90237 7.75055L6.11214 11.817L6.11218 11.817C6.32247 12.0832 6.72568 12.0824 6.93667 11.8175L6.93708 11.8169L12.6597 4.56527C12.6598 4.56507 12.66 4.56487 12.6602 4.56466C12.7884 4.40424 12.6699 4.17129 12.4689 4.17129H11.6498C11.4894 4.17129 11.3367 4.24479 11.2376 4.37173C11.2375 4.37184 11.2374 4.37195 11.2373 4.37206L6.52403 10.3429M3.91308 7.35645L6.52403 10.3429M6.52403 10.3429L4.32506 7.5566L6.52403 10.3429Z" fill="#292E35" stroke="#292E35" stroke-width="0.3"/>
</svg>
