<svg width="55" height="40" viewBox="0 0 55 40" fill="none" xmlns="http://www.w3.org/2000/svg">
<g filter="url(#filter0_d)">
<rect x="26" y="13.5" width="14" height="8" rx="0.5" stroke="white"/>
<rect x="13" y="13.5" width="10" height="8" rx="0.5" fill="white" stroke="white"/>
<path d="M14.6971 8.81832L17.5219 11.7941C17.7851 12.0686 18.2149 12.0686 18.4781 11.7941L21.3029 8.81832C21.724 8.36811 21.4257 7.59945 20.8292 7.59945H19.7502V7.58847V2.09808C19.7502 1.49413 19.3554 1 18.8729 1H17.1183C16.6358 1 16.2411 1.49413 16.2411 2.09808V7.58847V7.59945H15.1708C14.5743 7.59945 14.276 8.36811 14.6971 8.81832Z" fill="white"/>
<path d="M4.06 32.38V33.3H6.25V35.76H3.69V36.69H9.97V35.76H7.22V33.3H9.53V32.38H7.22V30.62H6.25V32.38H4.06ZM2.35 33.21V37.06H3.29V32.15C3.82 31.49 4.27 30.77 4.65 30.01H9.97V29.08H5.07C5.23 28.67 5.37 28.25 5.5 27.82L4.52 27.71C4.38 28.18 4.22 28.64 4.02 29.08H1.17V30.01H3.57C2.89 31.23 1.97 32.33 0.81 33.29L1.41 34.07C1.74 33.79 2.05 33.51 2.35 33.21ZM14.07 28.09V35.25C13.73 35.32 13.39 35.39 13.03 35.47V29.77H12.1V35.63C11.84 35.67 11.58 35.72 11.3 35.76L11.43 36.73C13.31 36.43 14.98 36.04 16.45 35.56V34.6C15.99 34.75 15.51 34.89 15 35.02V31.86H16.43V30.94H15V28.09H14.07ZM20.03 29.63C19.35 30.22 18.61 30.71 17.79 31.1V27.92H16.83V35.53C16.83 36.3 17.2 36.69 17.95 36.69H19.09C19.55 36.69 19.89 36.57 20.11 36.35C20.35 36.09 20.51 35.32 20.61 34.04L19.71 33.75C19.66 34.73 19.57 35.32 19.44 35.52C19.32 35.69 19.15 35.78 18.91 35.78H18.26C17.94 35.78 17.79 35.63 17.79 35.33V32.04C18.84 31.6 19.77 31.05 20.59 30.41L20.03 29.63ZM28.16 27.73C27.94 28.17 27.7 28.58 27.42 28.97H25.61C25.41 28.54 25.21 28.16 25 27.82L24 27.98C24.21 28.28 24.41 28.61 24.59 28.97H21.99V29.89H31V28.97H28.47C28.69 28.69 28.89 28.39 29.08 28.05L28.16 27.73ZM25.49 36.97C26.12 36.97 26.44 36.58 26.44 35.81V30.51H22.63V37.05H23.56V34.93H25.52V35.6C25.52 35.91 25.4 36.07 25.18 36.07L24.46 36.04L24.71 36.97H25.49ZM23.56 34.09V33.16H25.52V34.09H23.56ZM23.56 32.32V31.39H25.52V32.32H23.56ZM29.39 36.94C30.04 36.94 30.37 36.6 30.37 35.92V30.3H29.42V35.68C29.42 35.95 29.3 36.09 29.06 36.09C28.66 36.09 28.26 36.07 27.84 36.03L28.04 36.94H29.39ZM27.36 31.05V35.32H28.28V31.05H27.36ZM40.99 27.99C39.52 28.22 37.71 28.34 35.57 28.34L35.87 29.22C36.65 29.22 37.38 29.2 38.06 29.17V29.99H35.68V30.87H38.06V35.66H36.58V34.47H37.7V33.66H36.58V32.61C37.04 32.48 37.48 32.33 37.9 32.15L37.34 31.4C36.85 31.67 36.31 31.87 35.72 32.01V36.94H36.58V36.5H40.39V37.04H41.27V31.72H39.33V32.56H40.39V33.65H39.32V34.46H40.39V35.66H38.95V30.87H41.59V29.99H38.95V29.11C39.89 29.03 40.73 28.92 41.45 28.78L40.99 27.99ZM35.41 31.78C35.15 31.94 34.89 32.08 34.63 32.22V30.47H35.43V29.56H34.63V27.81H33.71V29.56H32.52V30.47H33.71V32.64C33.29 32.8 32.87 32.94 32.44 33.06L32.66 33.96C33.01 33.84 33.36 33.7 33.71 33.56V35.74C33.71 35.99 33.6 36.12 33.38 36.12C33.15 36.12 32.91 36.09 32.67 36.05L32.88 36.95H33.7C34.32 36.95 34.63 36.62 34.63 35.97V33.13C34.89 33 35.15 32.86 35.41 32.71V31.78ZM46.95 30.19C46.29 32.75 44.92 34.72 42.84 36.09L43.41 36.9C45.43 35.58 46.78 33.71 47.46 31.29C47.48 31.35 47.5 31.41 47.53 31.48C48.59 34.15 49.9 35.95 51.47 36.89L52.06 36.14C50.54 35.16 49.31 33.51 48.36 31.17C47.71 29.51 46.97 28.39 46.13 27.8L45.34 28.3C45.97 28.75 46.51 29.38 46.95 30.19Z" fill="white"/>
</g>
<defs>
<filter id="filter0_d" x="0.810059" y="0" width="53.25" height="39.06" filterUnits="userSpaceOnUse" color-interpolation-filters="sRGB">
<feFlood flood-opacity="0" result="BackgroundImageFix"/>
<feColorMatrix in="SourceAlpha" type="matrix" values="0 0 0 0 0 0 0 0 0 0 0 0 0 0 0 0 0 0 127 0"/>
<feOffset dx="1" dy="1"/>
<feGaussianBlur stdDeviation="0.5"/>
<feColorMatrix type="matrix" values="0 0 0 0 0 0 0 0 0 0 0 0 0 0 0 0 0 0 0.25 0"/>
<feBlend mode="normal" in2="BackgroundImageFix" result="effect1_dropShadow"/>
<feBlend mode="normal" in="SourceGraphic" in2="effect1_dropShadow" result="shape"/>
</filter>
</defs>
</svg>
