<svg width="12" height="13" viewBox="0 0 12 13" fill="none" xmlns="http://www.w3.org/2000/svg">
<path d="M5.30506 9.60505H6.29965V8.61046H5.30506V9.60505ZM6.83047 6.48858C6.33282 6.82035 6.10094 7.21776 6.10094 7.64905V7.94729H5.30471V7.5827C5.27153 6.98588 5.57012 6.45541 6.10059 6.05729C6.69706 5.6267 6.99565 5.19541 6.92929 4.79729C6.86294 4.20082 6.53153 3.86905 5.90153 3.83588C5.172 3.8027 4.70788 4.23399 4.54235 5.12905L3.64694 4.89682C3.91235 3.57082 4.74106 2.94082 6.06741 2.97399C7.22788 3.04035 7.82471 3.60399 7.95706 4.69811C7.99059 5.36129 7.62565 5.95811 6.83012 6.48858H6.83047ZM5.96823 0.984465C3.05047 0.984818 0.663529 3.37176 0.663529 6.28952C0.663529 9.20764 3.05047 11.5949 5.96823 11.5949C8.886 11.5949 11.2729 9.20729 11.2729 6.28952C11.2729 3.37176 8.88635 0.984818 5.96823 0.984818V0.984465ZM5.96823 12.2574C2.68588 12.2578 0 9.57188 0 6.28952C0 3.00717 2.68588 0.321289 5.96823 0.321289C9.25059 0.321289 11.9365 3.00717 11.9365 6.28952C11.9365 9.57188 9.25059 12.2578 5.96823 12.2578V12.2574Z" fill="#999999"/>
</svg>
