<svg width="20" height="31" viewBox="0 0 20 31" fill="none" xmlns="http://www.w3.org/2000/svg">
<rect x="3" y="1.5" width="8" height="4" rx="0.5" fill="white" stroke="white"/>
<rect x="3" y="7.5" width="14" height="6" rx="0.5" stroke="white"/>
<path d="M8.94 25.49H0.56V27.25H1.44V26.13H8.06V27.25H8.94V25.49ZM7.44 26.5H2.06V29.2H0.26V29.87H9.25V29.2H7.44V26.5ZM2.94 29.2V28.84H6.56V29.2H2.94ZM2.94 28.32V27.96H6.56V28.32H2.94ZM2.94 27.44V27.09H6.56V27.44H2.94ZM0.46 23.22V23.83H3.35C3.11 23.99 2.86 24.14 2.58 24.27C2.09 24.13 1.57 24.01 1.03 23.89L0.72 24.33C1.04 24.41 1.36 24.5 1.7 24.6C1.22 24.73 0.7 24.82 0.14 24.87L0.39 25.48C1.2 25.38 1.94 25.18 2.62 24.9C3.1 25.06 3.58 25.25 4.06 25.46L4.44 24.88C4.1 24.75 3.75 24.63 3.37 24.51C3.73 24.29 4.07 24.04 4.39 23.76V23.22H0.46ZM4.8 23.2V23.83H7.72C7.5 23.99 7.25 24.14 6.99 24.27C6.45 24.14 5.88 24.02 5.29 23.91L4.97 24.36C5.34 24.43 5.71 24.51 6.09 24.61C5.69 24.72 5.25 24.8 4.79 24.84L5.02 25.41C5.76 25.31 6.43 25.14 7.05 24.88C7.61 25.04 8.18 25.22 8.74 25.44L9.12 24.85C8.7 24.72 8.27 24.6 7.82 24.48C8.14 24.28 8.46 24.04 8.76 23.76V23.2H8.32L8.59 22.59C7.68 22.42 6.9 22.29 6.25 22.2C6.75 22.01 7.22 21.79 7.67 21.55V21H1.75V21.62H6.46C6.06 21.78 5.63 21.92 5.17 22.05C4.42 21.95 3.42 21.83 2.16 21.71L1.96 22.19C2.55 22.23 3.13 22.29 3.71 22.36C2.88 22.5 1.97 22.59 0.99 22.64L1.22 23.21C2.64 23.1 3.94 22.89 5.1 22.57L5.33 22.61C6.32 22.77 7.28 22.97 8.22 23.2H4.8ZM19.43 22.21H16.02V29.88H16.93V29.25H18.51V29.88H19.43V22.21ZM16.93 28.34V23.12H18.51V28.34H16.93ZM12.3 20.83V22.77H10.78V23.69H12.3C12.26 26.33 11.68 28.26 10.57 29.46L11.28 30.09C12.53 28.73 13.18 26.6 13.24 23.69H14.32C14.3 26.35 14.27 27.91 14.21 28.38C14.14 28.84 13.89 29.08 13.47 29.08C13.23 29.08 12.94 29.06 12.6 29.03L12.84 29.9C13.2 29.93 13.46 29.95 13.62 29.95C14.5 29.95 15 29.57 15.1 28.81C15.2 28.04 15.25 26.03 15.25 22.77H13.24V20.83H12.3Z" fill="white"/>
</svg>
