<svg width="23" height="33" viewBox="0 0 23 33" fill="none" xmlns="http://www.w3.org/2000/svg">
<g filter="url(#filter0_d)">
<path fill-rule="evenodd" clip-rule="evenodd" d="M15.4011 3.96579C15.1231 2.28979 13.8201 1.31279 12.1961 1.14979C11.9391 1.12579 11.7471 0.870789 11.7271 0.590789C11.7271 0.264789 12.0041 0.00878906 12.3031 0.0327891C14.4621 0.241789 16.1711 1.70879 16.4491 3.96579H17.4961L15.9781 6.22279L14.4611 3.96579H15.4011ZM4.56909 0.00878906H9.8461C10.1451 0.00878906 10.3801 0.264789 10.3801 0.590789V5.61779C10.3801 5.94379 10.1451 6.19979 9.8461 6.19979H4.56909C4.27009 6.19979 4.03509 5.94379 4.03509 5.61779V0.590789C4.03509 0.264789 4.27009 0.00878906 4.56909 0.00878906ZM5.5511 9.43479C5.6151 11.4368 7.0041 12.6468 8.8201 12.8098C8.95264 12.8305 9.07326 12.8983 9.15979 13.0008C9.24632 13.1034 9.29294 13.2337 9.2911 13.3678C9.2911 13.6938 9.0131 13.9498 8.7141 13.9268C6.3841 13.6938 4.56809 12.0188 4.52609 9.43479H3.52209L5.0391 7.17779L6.5551 9.43479H5.5511ZM11.1921 7.75879H16.4701C16.7471 7.75879 17.0031 8.01579 17.0021 8.34079V13.3918C17.0021 13.7168 16.7681 13.9728 16.4691 13.9728H11.1921C10.8921 13.9728 10.6581 13.7168 10.6581 13.3918V8.34079C10.6581 8.01579 10.8921 7.75879 11.1921 7.75879ZM11.7051 12.8328H15.9561V8.89879H11.7051V12.8328Z" fill="white"/>
<path d="M1.59 21.47V22.28H3.09C3.07 22.52 3.05 22.75 3.01 22.98H1.23V23.82H2.8C2.76 23.91 2.72 24.01 2.68 24.11C2.4 24.65 1.89 25.09 1.15 25.45L1.63 26.2C2.43 25.84 3.02 25.34 3.38 24.69L3.44 24.56C3.85 24.83 4.35 25.22 4.95 25.72H2.55V30.04H3.51V29.65H8.1V30.04H9.06V25.72H5.15L5.58 25.07C4.95 24.62 4.32 24.22 3.7 23.87C3.7 23.85 3.71 23.84 3.71 23.82H5.59V22.98H3.88C3.91 22.76 3.93 22.53 3.95 22.28H5.5V21.47H3.97V20.84H3.11V21.47H1.59ZM6 21.47V22.28H7.5C7.48 22.52 7.45 22.76 7.41 22.98H5.9V23.82H7.11L7.09 23.86C6.82 24.28 6.32 24.62 5.58 24.89L6.06 25.63C6.85 25.35 7.42 24.94 7.78 24.41C7.8 24.37 7.82 24.34 7.84 24.3C8.3 24.94 8.96 25.53 9.84 26.07L10.41 25.36C9.49 24.9 8.84 24.39 8.44 23.82H10.28V22.98H8.29C8.32 22.76 8.34 22.53 8.36 22.28H10V21.47H8.37V20.84H7.51V21.47H6ZM3.51 28.81V28.08H8.1V28.81H3.51ZM3.51 27.28V26.54H8.1V27.28H3.51ZM20.32 23.49H18.65C18.9 23.12 19.15 22.68 19.41 22.17V21.49H17.39C17.49 21.29 17.58 21.08 17.66 20.86L16.74 20.74C16.39 21.65 15.73 22.42 14.76 23.04L15.32 23.78L15.34 23.77V26.2H14.7V27.08H16.88C16.45 27.96 15.61 28.7 14.36 29.28L14.98 30.08C16.4 29.32 17.33 28.4 17.77 27.33C18.35 28.45 19.26 29.37 20.51 30.08L20.94 29.18C19.85 28.67 19.05 27.97 18.53 27.08H20.88V26.2H20.32V23.49ZM16.18 26.2V24.32H17.36C17.34 25.04 17.27 25.67 17.17 26.2H16.18ZM18.08 26.2C18.17 25.68 18.22 25.06 18.24 24.32H19.48V26.2H18.08ZM17.69 23.49H15.72C16.18 23.13 16.57 22.73 16.91 22.29H18.42C18.18 22.74 17.93 23.14 17.69 23.49ZM12.83 29.92C13.47 29.92 13.8 29.59 13.8 28.93V26.17C14.13 26.01 14.46 25.85 14.78 25.68V24.72C14.46 24.9 14.13 25.06 13.8 25.22V23.47H14.74V22.56H13.8V20.81H12.86V22.56H11.75V23.47H12.86V25.6C12.42 25.76 11.99 25.89 11.55 25.99L11.79 26.95C12.15 26.83 12.5 26.71 12.86 26.57V28.69C12.86 28.94 12.74 29.07 12.5 29.07C12.27 29.07 12.03 29.05 11.77 29.01L11.98 29.92H12.83Z" fill="white"/>
</g>
<defs>
<filter id="filter0_d" x="1.15002" y="0.00878906" width="21.79" height="32.0714" filterUnits="userSpaceOnUse" color-interpolation-filters="sRGB">
<feFlood flood-opacity="0" result="BackgroundImageFix"/>
<feColorMatrix in="SourceAlpha" type="matrix" values="0 0 0 0 0 0 0 0 0 0 0 0 0 0 0 0 0 0 127 0"/>
<feOffset dx="1" dy="1"/>
<feGaussianBlur stdDeviation="0.5"/>
<feColorMatrix type="matrix" values="0 0 0 0 0 0 0 0 0 0 0 0 0 0 0 0 0 0 0.25 0"/>
<feBlend mode="normal" in2="BackgroundImageFix" result="effect1_dropShadow"/>
<feBlend mode="normal" in="SourceGraphic" in2="effect1_dropShadow" result="shape"/>
</filter>
</defs>
</svg>
