<svg width="19" height="22" viewBox="0 0 19 22" fill="none" xmlns="http://www.w3.org/2000/svg">
<path d="M3.73488 0C4.19373 0 4.64829 0.0828642 5.07588 0.244079L5.1918 0.289986L6.57625 0.864968L16.8292 5.49109L14.7947 6.68915C14.4732 6.87846 14.0822 6.91207 13.7338 6.78338L13.6647 6.75548L4.16921 2.58402C3.55293 2.31327 2.82938 2.58342 2.55313 3.18742C2.49268 3.31958 2.45725 3.46121 2.44837 3.60538L2.44614 3.67765V22H2.14043C0.98293 22 0.0400261 21.0995 0.00124085 19.9744L0 19.9022V3.66043C0 1.63883 1.67216 0 3.73488 0ZM17.434 6.53141L17.5816 6.82148C18.1108 7.86181 17.7538 9.1212 16.7646 9.74757L16.6977 9.78838L11.5076 12.8378L18.0134 21.9755L16.1927 21.9998C15.5134 22.0089 14.8718 21.7014 14.4619 21.1745L14.4119 21.1075L9.38383 14.0861L4.06893 17.21L3.92127 16.9208C3.4116 15.9228 3.99356 14.4914 5.01721 13.8439L5.08314 13.8036L17.434 6.53141ZM6.20466 4.96201L6.45985 5.04183L6.34436 5.01137L6.40852 5.03824L12.841 7.83908L12.0399 8.30959C11.7595 8.47411 11.418 8.5039 11.1129 8.39118L10.8595 8.30706L5.90525 6.13056C5.63383 6.0112 5.31199 6.10081 5.15032 6.33702L5.12421 6.3793L5.09962 6.42688C5.08191 6.46531 5.06906 6.5016 5.06053 6.53437L5.05471 6.55997L5.0471 6.60908L5.04371 6.67119L5.04311 11.8375C5.04308 12.1859 4.86648 12.5112 4.57265 12.706L4.51913 12.7393L3.82013 13.1491L3.82072 6.67733C3.82072 6.48665 3.85167 6.29813 3.91344 6.11402L3.94849 6.01816L3.983 5.93791C4.36414 5.10549 5.32423 4.68963 6.20466 4.96201Z" fill="white"/>
</svg>
